<?xml version="1.0" encoding="UTF-8"?>
<svg id="Layer_2" data-name="Layer 2" xmlns="http://www.w3.org/2000/svg" xmlns:xlink="http://www.w3.org/1999/xlink" viewBox="0 0 78.59 55.54">
  <defs>
    <style>
      .cls-1 {
        fill: url(#linear-gradient-2);
      }

      .cls-2 {
        fill: #a5a4a4;
      }

      .cls-3 {
        fill: url(#linear-gradient);
      }
    </style>
    <linearGradient id="linear-gradient" x1="-1.25" y1="53.66" x2="77.83" y2="53.66" gradientUnits="userSpaceOnUse">
      <stop offset="0" stop-color="#58595b"/>
      <stop offset=".1" stop-color="#5f6063"/>
      <stop offset=".38" stop-color="#717375"/>
      <stop offset=".68" stop-color="#7c7e81"/>
      <stop offset="1" stop-color="#808285"/>
    </linearGradient>
    <linearGradient id="linear-gradient-2" x1="53.83" y1="10.86" x2="54.47" y2="-3.51" gradientUnits="userSpaceOnUse">
      <stop offset="0" stop-color="#9bcb3c"/>
      <stop offset="1" stop-color="#c3dfa3"/>
    </linearGradient>
  </defs>
  <g id="Layer_1-2" data-name="Layer 1">
    <g>
      <g>
        <g>
          <path class="cls-3" d="M2.6,53.33h1.65v-1.4h.43v3.47h-.43v-1.67h-1.65v1.67h-.43v-3.47h.43v1.4Z"/>
          <path class="cls-3" d="M7.42,55.4v-3.47h1.86v.39h-1.43v.97h1.39v.39h-1.39v1.31h1.43v.4h-1.86Z"/>
          <path class="cls-3" d="M14.02,54.53h-1.59l-.4.87h-.46l1.66-3.62,1.66,3.62h-.47l-.39-.87ZM13.84,54.14l-.62-1.4-.62,1.4h1.23Z"/>
          <path class="cls-3" d="M17.72,51.93v3.07h1.05v.4h-1.49v-3.47h.43Z"/>
          <path class="cls-3" d="M21.97,52.33v3.07h-.43v-3.07h-.82v-.39h2.08v.39h-.82Z"/>
          <path class="cls-3" d="M25.64,53.33h1.65v-1.4h.43v3.47h-.43v-1.67h-1.65v1.67h-.43v-3.47h.43v1.4Z"/>
          <path class="cls-3" d="M36.3,55.4l-.38-.47c-.31.36-.65.54-1.04.54-.29,0-.55-.1-.75-.29-.21-.19-.31-.44-.31-.73,0-.2.05-.37.15-.5.1-.14.25-.28.45-.42l.22-.16c-.25-.27-.38-.52-.38-.76s.07-.42.23-.55.34-.2.57-.2c.22,0,.41.07.57.2s.23.31.23.53c0,.09-.02.18-.05.26-.04.09-.09.16-.16.24-.07.07-.14.14-.19.19s-.13.11-.23.17l.72.87.41-.47.28.29-.42.5.62.77h-.53ZM34.9,53.69l-.04.03s-.03.02-.09.06c-.06.04-.1.06-.11.08-.01.01-.05.04-.1.08-.05.04-.09.07-.11.09-.02.02-.05.05-.09.09-.04.04-.06.07-.08.1-.01.03-.03.07-.04.11s-.02.08-.02.12c0,.17.07.31.2.44.13.13.28.2.45.2.1,0,.2-.03.31-.08.1-.05.19-.11.25-.16.06-.06.14-.13.23-.22l-.77-.94ZM34.99,53.15l.06-.04s.04-.03.09-.07c.05-.04.08-.06.1-.08.02-.02.05-.04.08-.08s.06-.07.08-.09c.02-.03.03-.06.05-.1.01-.04.02-.08.02-.12,0-.12-.04-.21-.11-.28-.08-.07-.17-.1-.29-.1-.11,0-.2.03-.27.1-.07.07-.11.16-.11.26,0,.06.01.11.04.17.02.06.05.1.07.13.02.03.05.07.1.14l.12.15Z"/>
          <path class="cls-3" d="M42.74,51.93l.97,2.48.98-2.56.98,2.56.97-2.48h.47l-1.44,3.61-.98-2.54-.98,2.54-1.44-3.61h.47Z"/>
          <path class="cls-3" d="M49.49,55.4v-3.47h1.86v.39h-1.43v.97h1.39v.39h-1.39v1.31h1.43v.4h-1.86Z"/>
          <path class="cls-3" d="M54.44,51.93v3.07h1.05v.4h-1.49v-3.47h.43Z"/>
          <path class="cls-3" d="M58.32,51.93v3.07h1.05v.4h-1.49v-3.47h.43Z"/>
          <path class="cls-3" d="M61.73,55.4v-3.63l2.6,2.73v-2.56h.43v3.61l-2.6-2.73v2.58h-.43Z"/>
          <path class="cls-3" d="M67.5,55.4v-3.47h1.86v.39h-1.43v.97h1.39v.39h-1.39v1.31h1.43v.4h-1.86Z"/>
          <path class="cls-3" d="M73.9,52.39l-.35.21c-.13-.22-.31-.33-.56-.33-.15,0-.28.05-.4.14s-.18.21-.18.35c0,.21.16.37.48.5l.25.1c.28.11.49.24.64.4.15.16.22.37.22.64,0,.31-.11.57-.32.78-.21.2-.48.31-.79.31-.28,0-.52-.09-.72-.27s-.32-.41-.35-.7l.44-.09c0,.19.06.34.19.47.13.13.29.19.48.19s.34-.07.46-.2c.12-.13.18-.29.18-.48,0-.17-.05-.3-.16-.4-.11-.1-.25-.18-.44-.26l-.24-.1c-.24-.1-.42-.22-.55-.35-.13-.13-.2-.31-.2-.53,0-.27.1-.49.3-.65.2-.16.44-.25.72-.25.4,0,.7.17.89.52Z"/>
          <path class="cls-3" d="M78.48,52.39l-.34.21c-.13-.22-.31-.33-.56-.33-.15,0-.28.05-.4.14-.12.09-.18.21-.18.35,0,.21.16.37.48.5l.25.1c.28.11.49.24.64.4.15.16.22.37.22.64,0,.31-.11.57-.32.78s-.48.31-.79.31c-.28,0-.52-.09-.72-.27s-.32-.41-.35-.7l.44-.09c0,.19.06.34.19.47.13.13.29.19.48.19s.34-.07.46-.2c.12-.13.18-.29.18-.48,0-.17-.05-.3-.16-.4-.11-.1-.25-.18-.44-.26l-.24-.1c-.24-.1-.42-.22-.55-.35-.13-.13-.2-.31-.2-.53,0-.27.1-.49.3-.65s.44-.25.72-.25c.4,0,.7.17.89.52Z"/>
        </g>
        <g>
          <path class="cls-2" d="M2.6,53.33h1.65v-1.4h.43v3.47h-.43v-1.67h-1.65v1.67h-.43v-3.47h.43v1.4Z"/>
          <path class="cls-2" d="M7.42,55.4v-3.47h1.86v.39h-1.43v.97h1.39v.39h-1.39v1.31h1.43v.4h-1.86Z"/>
          <path class="cls-2" d="M14.02,54.53h-1.59l-.4.87h-.46l1.66-3.62,1.66,3.62h-.47l-.39-.87ZM13.84,54.14l-.62-1.4-.62,1.4h1.23Z"/>
          <path class="cls-2" d="M17.72,51.93v3.07h1.05v.4h-1.49v-3.47h.43Z"/>
          <path class="cls-2" d="M21.97,52.33v3.07h-.43v-3.07h-.82v-.39h2.08v.39h-.82Z"/>
          <path class="cls-2" d="M25.64,53.33h1.65v-1.4h.43v3.47h-.43v-1.67h-1.65v1.67h-.43v-3.47h.43v1.4Z"/>
          <path class="cls-2" d="M36.3,55.4l-.38-.47c-.31.36-.65.54-1.04.54-.29,0-.55-.1-.75-.29-.21-.19-.31-.44-.31-.73,0-.2.05-.37.15-.5.1-.14.25-.28.45-.42l.22-.16c-.25-.27-.38-.52-.38-.76s.07-.42.23-.55.34-.2.57-.2c.22,0,.41.07.57.2s.23.31.23.53c0,.09-.02.18-.05.26-.04.09-.09.16-.16.24-.07.07-.14.14-.19.19s-.13.11-.23.17l.72.87.41-.47.28.29-.42.5.62.77h-.53ZM34.9,53.69l-.04.03s-.03.02-.09.06c-.06.04-.1.06-.11.08-.01.01-.05.04-.1.08-.05.04-.09.07-.11.09-.02.02-.05.05-.09.09-.04.04-.06.07-.08.1-.01.03-.03.07-.04.11s-.02.08-.02.12c0,.17.07.31.2.44.13.13.28.2.45.2.1,0,.2-.03.31-.08.1-.05.19-.11.25-.16.06-.06.14-.13.23-.22l-.77-.94ZM34.99,53.15l.06-.04s.04-.03.09-.07c.05-.04.08-.06.1-.08.02-.02.05-.04.08-.08s.06-.07.08-.09c.02-.03.03-.06.05-.1.01-.04.02-.08.02-.12,0-.12-.04-.21-.11-.28-.08-.07-.17-.1-.29-.1-.11,0-.2.03-.27.1-.07.07-.11.16-.11.26,0,.06.01.11.04.17.02.06.05.1.07.13.02.03.05.07.1.14l.12.15Z"/>
          <path class="cls-2" d="M42.74,51.93l.97,2.48.98-2.56.98,2.56.97-2.48h.47l-1.44,3.61-.98-2.54-.98,2.54-1.44-3.61h.47Z"/>
          <path class="cls-2" d="M49.49,55.4v-3.47h1.86v.39h-1.43v.97h1.39v.39h-1.39v1.31h1.43v.4h-1.86Z"/>
          <path class="cls-2" d="M54.44,51.93v3.07h1.05v.4h-1.49v-3.47h.43Z"/>
          <path class="cls-2" d="M58.32,51.93v3.07h1.05v.4h-1.49v-3.47h.43Z"/>
          <path class="cls-2" d="M61.73,55.4v-3.63l2.6,2.73v-2.56h.43v3.61l-2.6-2.73v2.58h-.43Z"/>
          <path class="cls-2" d="M67.5,55.4v-3.47h1.86v.39h-1.43v.97h1.39v.39h-1.39v1.31h1.43v.4h-1.86Z"/>
          <path class="cls-2" d="M73.9,52.39l-.35.21c-.13-.22-.31-.33-.56-.33-.15,0-.28.05-.4.14s-.18.21-.18.35c0,.21.16.37.48.5l.25.1c.28.11.49.24.64.4.15.16.22.37.22.64,0,.31-.11.57-.32.78-.21.2-.48.31-.79.31-.28,0-.52-.09-.72-.27s-.32-.41-.35-.7l.44-.09c0,.19.06.34.19.47.13.13.29.19.48.19s.34-.07.46-.2c.12-.13.18-.29.18-.48,0-.17-.05-.3-.16-.4-.11-.1-.25-.18-.44-.26l-.24-.1c-.24-.1-.42-.22-.55-.35-.13-.13-.2-.31-.2-.53,0-.27.1-.49.3-.65.2-.16.44-.25.72-.25.4,0,.7.17.89.52Z"/>
          <path class="cls-2" d="M78.48,52.39l-.34.21c-.13-.22-.31-.33-.56-.33-.15,0-.28.05-.4.14-.12.09-.18.21-.18.35,0,.21.16.37.48.5l.25.1c.28.11.49.24.64.4.15.16.22.37.22.64,0,.31-.11.57-.32.78s-.48.31-.79.31c-.28,0-.52-.09-.72-.27s-.32-.41-.35-.7l.44-.09c0,.19.06.34.19.47.13.13.29.19.48.19s.34-.07.46-.2c.12-.13.18-.29.18-.48,0-.17-.05-.3-.16-.4-.11-.1-.25-.18-.44-.26l-.24-.1c-.24-.1-.42-.22-.55-.35-.13-.13-.2-.31-.2-.53,0-.27.1-.49.3-.65s.44-.25.72-.25c.4,0,.7.17.89.52Z"/>
        </g>
      </g>
      <path class="cls-2" d="M28.28,19.55V0h-6.95v22.81c-1.87-2.29-4.77-3.44-8.7-3.44-3.69,0-6.73,1.42-9.12,4.28-2.34,2.81-3.51,6.22-3.51,10.25s1.15,7.53,3.44,10.52c2.34,2.99,5.47,4.49,9.4,4.49s6.81-1.17,8.63-3.51v2.6h5.44v-28.45h1.36ZM20.14,40.56c-1.4,1.64-3.23,2.45-5.48,2.45s-4.11-.84-5.61-2.52c-1.45-1.73-2.18-3.84-2.18-6.32s.75-4.63,2.25-6.31c1.54-1.73,3.36-2.6,5.47-2.6s3.91.87,5.4,2.6c1.5,1.73,2.25,3.81,2.25,6.24,0,2.62-.7,4.77-2.1,6.46Z"/>
      <path class="cls-2" d="M49.25,33.88c0-3.39.8-6.37,2.37-8.94-1.36-3.71-4.24-5.57-8.62-5.57-3.74,0-6.57,1.14-8.49,3.44v-2.53h-6.81v27.72h6.81v-14.03c0-6.27,1.96-9.4,5.89-9.4,3.6,0,5.4,2.92,5.4,8.77v14.67h6.74v-3.48c-2.18-3.06-3.29-6.6-3.29-10.64Z"/>
      <path class="cls-2" d="M72.39,34.11c0-2.58-.72-4.68-2.17-6.32-1.45-1.69-3.32-2.53-5.62-2.53s-4.09.82-5.54,2.45c-1.4,1.59-2.1,3.72-2.1,6.39s.72,4.81,2.17,6.45c1.45,1.64,3.32,2.45,5.62,2.45s4.14-.79,5.54-2.39c1.4-1.59,2.1-3.76,2.1-6.52M78.28,48h-6.66v-2.53c-1.97,2.29-4.89,3.43-8.77,3.43s-6.99-1.5-9.33-4.49c-2.29-2.99-3.44-6.5-3.44-10.52s1.17-7.44,3.51-10.25c2.39-2.85,5.42-4.28,9.12-4.28,3.93,0,6.9,1.17,8.91,3.51v-2.59h6.66v27.71Z"/>
      <path class="cls-1" d="M51.98,17.94c-.4-5.15-2.89-16.48-17.15-13.65,4.49,2.63,1.04,14.62,15.06,12.5-3.03-6.23-6.72-8.03-6.72-8.03,0,0,7.03,2.46,8.78,11.24.03,1.34.14,2.18.14,2.18,1.21-12.49,11.21-15.95,11.21-15.95,0,0-7.33,5.46-8.04,10.64,15.43,3.86,13.08-13.72,18.3-15.87-18.28-2.76-21.28,10.01-21.59,16.94Z"/>
    </g>
  </g>
</svg>