
<svg xmlns="http://www.w3.org/2000/svg" width="236" height="86" viewBox="0 0 236 86" fill="none">
  <path d="M55.9 69.1C45.2 69.1 34.6 62.6 28.5 52.5C22.2 42.2 21.1 29.7 25.6 18.9C30.1 8 39.4 0.9 51 0.9H87.3V50.1C87.3 60.8 78.5 69.1 67.2 69.1H55.9Z" fill="#A4A5A5"/>
  <path d="M55.9 68.2C45.2 68.2 34.6 61.7 28.5 51.6C22.2 41.3 21.1 28.8 25.6 18C30.1 7.1 39.4 0 51 0H87.3V49.2C87.3 59.9 78.5 68.2 67.2 68.2H55.9Z" fill="#A4A5A5"/>
  <path d="M153.8 67.6C159.7 59.9 156.8 48 147.2 44.2C138.8 40.8 128.8 43.9 123.9 51.4C116.8 62.2 109.8 73.1 102.8 83.9C102.2 84.8 101.7 85.8 100.9 86.6H127C136.1 86.6 145.5 80.9 150.6 72.8C151.8 71 152.8 69.3 153.8 67.6Z" fill="#99BC44"/>
  <path d="M140.1 18.5C135.9 16.7 130.9 16.9 126.9 18.9C123.1 20.9 120.2 24.4 118 28.4C113.7 36.2 113.9 47 119.3 55.1C119.4 55.3 119.6 55.5 119.7 55.6C120.4 54.7 121 53.7 121.6 52.7C126.8 44.6 132 36.5 137.2 28.4C138.5 26.4 139.2 24.1 140.1 18.5Z" fill="#99BC44"/>
</svg>
